<svg viewBox="0 0 64 64" fill="none" xmlns="http://www.w3.org/2000/svg">
  <defs>
    <radialGradient id="sg" cx="50%" cy="50%">
      <stop offset="0%" stop-color="#ff69b4" stop-opacity="0.5"/>
      <stop offset="100%" stop-color="#ff69b4" stop-opacity="0"/>
    </radialGradient>
    <!-- Clip path: computer body with bite taken out -->
    <clipPath id="bite">
      <path d="
        M14,8
        H54 a4,4 0 0 1 4,4
        V38 a4,4 0 0 1 -4,4
        H10 a4,4 0 0 1 -4,-4
        V12 a4,4 0 0 1 4,-4
        H14
        Z
      "/>
      <!-- Subtract the bite by using evenodd with a surrounding rect -->
    </clipPath>
    <!-- Mask: white = visible, black = hidden -->
    <mask id="biteMask">
      <!-- Full computer visible -->
      <rect x="6" y="4" width="52" height="44" fill="white"/>
      <!-- Bite circles cut out -->
      <circle cx="10" cy="16" r="10" fill="black"/>
      <circle cx="8" cy="30" r="7" fill="black"/>
    </mask>
  </defs>

  <!-- Computer body with bite mask applied -->
  <g mask="url(#biteMask)">
    <rect x="10" y="8" width="44" height="34" rx="4" fill="#1e1e30" stroke="#555" stroke-width="1.5"/>
    <!-- Screen -->
    <rect x="14" y="12" width="36" height="26" rx="2" fill="#0e0e18"/>
    <rect x="14" y="12" width="36" height="26" rx="2" fill="url(#sg)" opacity="0.4"/>
    <!-- Screen code lines -->
    <line x1="18" y1="20" x2="32" y2="20" stroke="#ff69b4" stroke-width="1.5" opacity="0.3"/>
    <line x1="20" y1="26" x2="40" y2="26" stroke="#ff69b4" stroke-width="1.5" opacity="0.2"/>
    <line x1="18" y1="32" x2="35" y2="32" stroke="#ff69b4" stroke-width="1.5" opacity="0.3"/>
  </g>

  <!-- Stand (not masked) -->
  <rect x="24" y="42" width="16" height="4" rx="2" fill="#555"/>
  <rect x="20" y="45" width="24" height="3" rx="2" fill="#444"/>

  <!-- Brain chunk particles flying out from the bite -->
  <polygon points="16,10 20,6 19,14" fill="#ff69b4" opacity="0.8"/>
  <polygon points="13,26 17,22 16,29" fill="#ff8ec8" opacity="0.6"/>
  <rect x="19" y="17" width="4" height="2.5" rx="1" fill="#ff69b4" transform="rotate(-25 21 18)" opacity="0.6"/>
  <rect x="15" y="33" width="3" height="2" rx="1" fill="#d44a90" transform="rotate(15 16 34)" opacity="0.5"/>
  <circle cx="21" cy="8" r="1.5" fill="#e0559e" opacity="0.7"/>
  <circle cx="5" cy="22" r="1" fill="#ff69b4" opacity="0.5"/>
  <polygon points="3,14 6,11 5,17" fill="#d44a90" opacity="0.5"/>
</svg>
